<svg width="22" height="20" viewBox="0 0 22 20" fill="none" xmlns="http://www.w3.org/2000/svg">
<g clip-path="url(#clip0_545_3118)">
<path d="M11 0C13.3948 0 15.4344 1.04297 16.1849 2.5H18.3333C20.3557 2.5 22 3.62109 22 5V17.5C22 18.8789 20.3557 20 18.3333 20H3.66667C1.64427 20 -4.76837e-07 18.8789 -4.76837e-07 17.5V5C-4.76837e-07 3.62109 1.64427 2.5 3.66667 2.5H5.8151C6.56562 1.04297 8.60521 0 11 0ZM11 2.5C10.5138 2.5 10.0475 2.6317 9.70364 2.86612C9.35982 3.10054 9.16667 3.41848 9.16667 3.75C9.16667 4.08152 9.35982 4.39946 9.70364 4.63388C10.0475 4.8683 10.5138 5 11 5C11.4862 5 11.9525 4.8683 12.2964 4.63388C12.6402 4.39946 12.8333 4.08152 12.8333 3.75C12.8333 3.41848 12.6402 3.10054 12.2964 2.86612C11.9525 2.6317 11.4862 2.5 11 2.5ZM14.6667 10C14.6667 9.33696 14.2804 8.70107 13.5927 8.23223C12.9051 7.76339 11.9725 7.5 11 7.5C10.0275 7.5 9.09491 7.76339 8.40727 8.23223C7.71964 8.70107 7.33333 9.33696 7.33333 10C7.33333 10.663 7.71964 11.2989 8.40727 11.7678C9.09491 12.2366 10.0275 12.5 11 12.5C11.9725 12.5 12.9051 12.2366 13.5927 11.7678C14.2804 11.2989 14.6667 10.663 14.6667 10ZM17.4167 16.875C17.4167 15.1484 15.3656 13.75 12.8333 13.75H9.16667C6.63437 13.75 4.58333 15.1484 4.58333 16.875C4.58333 17.2188 4.99583 17.5 5.5 17.5H16.5C17.0042 17.5 17.4167 17.2188 17.4167 16.875Z" fill="#112D4E"/>
</g>
<defs>
<clipPath id="clip0_545_3118">
<rect width="22" height="20" fill="white" transform="matrix(-1 0 0 1 22 0)"/>
</clipPath>
</defs>
</svg>
