<svg width="22" height="20" viewBox="0 0 22 20" fill="none" xmlns="http://www.w3.org/2000/svg">
<g clip-path="url(#clip0_605_23958)">
<path d="M4.95 0C5.67935 0 6.37882 0.32924 6.89454 0.915291C7.41027 1.50134 7.7 2.2962 7.7 3.125C7.7 3.9538 7.41027 4.74866 6.89454 5.33471C6.37882 5.92076 5.67935 6.25 4.95 6.25C4.22065 6.25 3.52118 5.92076 3.00546 5.33471C2.48973 4.74866 2.2 3.9538 2.2 3.125C2.2 2.2962 2.48973 1.50134 3.00546 0.915291C3.52118 0.32924 4.22065 0 4.95 0ZM17.6 0C18.3293 0 19.0288 0.32924 19.5445 0.915291C20.0603 1.50134 20.35 2.2962 20.35 3.125C20.35 3.9538 20.0603 4.74866 19.5445 5.33471C19.0288 5.92076 18.3293 6.25 17.6 6.25C16.8707 6.25 16.1712 5.92076 15.6555 5.33471C15.1397 4.74866 14.85 3.9538 14.85 3.125C14.85 2.2962 15.1397 1.50134 15.6555 0.915291C16.1712 0.32924 16.8707 0 17.6 0ZM0 11.668C0 9.36719 1.64312 7.5 3.66781 7.5H5.13562C5.68219 7.5 6.20125 7.63672 6.66875 7.87891C6.62406 8.16016 6.60344 8.45312 6.60344 8.75C6.60344 10.2422 7.18094 11.582 8.09188 12.5C8.085 12.5 8.07812 12.5 8.06781 12.5H0.732188C0.33 12.5 0 12.125 0 11.668ZM13.9322 12.5C13.9253 12.5 13.9184 12.5 13.9081 12.5C14.8225 11.582 15.3966 10.2422 15.3966 8.75C15.3966 8.45312 15.3725 8.16406 15.3313 7.87891C15.7987 7.63281 16.3178 7.5 16.8644 7.5H18.3322C20.3569 7.5 22 9.36719 22 11.668C22 12.1289 21.67 12.5 21.2678 12.5H13.9322ZM7.7 8.75C7.7 7.75544 8.04768 6.80161 8.66655 6.09835C9.28542 5.39509 10.1248 5 11 5C11.8752 5 12.7146 5.39509 13.3335 6.09835C13.9523 6.80161 14.3 7.75544 14.3 8.75C14.3 9.74456 13.9523 10.6984 13.3335 11.4017C12.7146 12.1049 11.8752 12.5 11 12.5C10.1248 12.5 9.28542 12.1049 8.66655 11.4017C8.04768 10.6984 7.7 9.74456 7.7 8.75ZM4.4 18.957C4.4 16.082 6.45219 13.75 8.98219 13.75H13.0178C15.5478 13.75 17.6 16.082 17.6 18.957C17.6 19.5312 17.1909 20 16.6822 20H5.31781C4.8125 20 4.4 19.5352 4.4 18.957Z" fill="white"/>
</g>
<defs>
<clipPath id="clip0_605_23958">
<rect width="22" height="20" fill="white"/>
</clipPath>
</defs>
</svg>
