<svg width="22" height="20" viewBox="0 0 22 20" fill="none" xmlns="http://www.w3.org/2000/svg">
<path d="M8.90312 1.26565C9.75759 1.37894 10.3371 2.02347 10.1946 2.70315L9.71339 5.00003H14.3835L14.9482 2.293C15.0906 1.61331 15.9009 1.15237 16.7554 1.26565C17.6098 1.37894 18.1893 2.02347 18.0469 2.70315L17.5705 5.00003H20.4286C21.2978 5.00003 22 5.55862 22 6.25003C22 6.94144 21.2978 7.50003 20.4286 7.50003H17.0451L15.9991 12.5H18.8571C19.7263 12.5 20.4286 13.0586 20.4286 13.75C20.4286 14.4414 19.7263 15 18.8571 15H15.4737L14.9089 17.7071C14.7665 18.3867 13.9562 18.8477 13.1018 18.7344C12.2473 18.6211 11.6679 17.9766 11.8103 17.2969L12.2915 15.0039H7.61652L7.05179 17.711C6.90938 18.3907 6.09911 18.8516 5.24464 18.7383C4.39018 18.625 3.81071 17.9805 3.95312 17.3008L4.42946 15H1.57143C0.702232 15 0 14.4414 0 13.75C0 13.0586 0.702232 12.5 1.57143 12.5H4.95491L6.00089 7.50003H3.14286C2.27366 7.50003 1.57143 6.94144 1.57143 6.25003C1.57143 5.55862 2.27366 5.00003 3.14286 5.00003H6.52634L7.09107 2.293C7.23348 1.61331 8.04375 1.15237 8.89821 1.26565H8.90312ZM9.18795 7.50003L8.14196 12.5H12.8121L13.858 7.50003H9.18795Z" fill="white"/>
</svg>
