<svg width="22" height="20" viewBox="0 0 22 20" fill="none" xmlns="http://www.w3.org/2000/svg">
<path d="M2.475 3.4375C2.475 2.85734 2.67781 2.30094 3.03882 1.8907C3.39983 1.48047 3.88946 1.25 4.4 1.25C4.91054 1.25 5.40017 1.48047 5.76118 1.8907C6.12219 2.30094 6.325 2.85734 6.325 3.4375C6.325 4.01766 6.12219 4.57406 5.76118 4.9843C5.40017 5.39453 4.91054 5.625 4.4 5.625C3.88946 5.625 3.39983 5.39453 3.03882 4.9843C2.67781 4.57406 2.475 4.01766 2.475 3.4375ZM2.2 9.59766C1.85625 10.0352 1.65 10.6172 1.65 11.25C1.65 11.8828 1.85625 12.4648 2.2 12.9023V9.59375V9.59766ZM7.16375 7.67187C6.14281 8.69922 5.5 10.2031 5.5 11.875C5.5 13.2148 5.9125 14.4453 6.6 15.4102V16.25C6.6 16.9414 6.10844 17.5 5.5 17.5H3.3C2.69156 17.5 2.2 16.9414 2.2 16.25V15.2031C0.900625 14.5 0 12.9961 0 11.25C0 8.83203 1.72219 6.875 3.85 6.875H4.95C5.775 6.875 6.53812 7.16797 7.16375 7.66797V7.67187ZM15.4 16.25V15.4102C16.0875 14.4453 16.5 13.2148 16.5 11.875C16.5 10.2031 15.8572 8.69922 14.8363 7.66797C15.4619 7.16797 16.225 6.875 17.05 6.875H18.15C20.2778 6.875 22 8.83203 22 11.25C22 12.9961 21.0994 14.5 19.8 15.2031V16.25C19.8 16.9414 19.3084 17.5 18.7 17.5H16.5C15.8916 17.5 15.4 16.9414 15.4 16.25ZM15.675 3.4375C15.675 2.85734 15.8778 2.30094 16.2388 1.8907C16.5998 1.48047 17.0895 1.25 17.6 1.25C18.1105 1.25 18.6002 1.48047 18.9612 1.8907C19.3222 2.30094 19.525 2.85734 19.525 3.4375C19.525 4.01766 19.3222 4.57406 18.9612 4.9843C18.6002 5.39453 18.1105 5.625 17.6 5.625C17.0895 5.625 16.5998 5.39453 16.2388 4.9843C15.8778 4.57406 15.675 4.01766 15.675 3.4375ZM19.8 9.59766V12.9062C20.1438 12.4648 20.35 11.8867 20.35 11.2539C20.35 10.6211 20.1438 10.0391 19.8 9.60156V9.59766ZM11 1.25C11.5835 1.25 12.1431 1.51339 12.5556 1.98223C12.9682 2.45107 13.2 3.08696 13.2 3.75C13.2 4.41304 12.9682 5.04893 12.5556 5.51777C12.1431 5.98661 11.5835 6.25 11 6.25C10.4165 6.25 9.85695 5.98661 9.44437 5.51777C9.03179 5.04893 8.8 4.41304 8.8 3.75C8.8 3.08696 9.03179 2.45107 9.44437 1.98223C9.85695 1.51339 10.4165 1.25 11 1.25ZM8.25 11.875C8.25 12.5078 8.45625 13.0859 8.8 13.5273V10.2188C8.45625 10.6602 8.25 11.2383 8.25 11.8711V11.875ZM13.2 10.2227V13.5312C13.5438 13.0898 13.75 12.5117 13.75 11.8789C13.75 11.2461 13.5438 10.6641 13.2 10.2266V10.2227ZM15.4 11.875C15.4 13.6211 14.4994 15.125 13.2 15.8281V17.5C13.2 18.1914 12.7084 18.75 12.1 18.75H9.9C9.29156 18.75 8.8 18.1914 8.8 17.5V15.8281C7.50063 15.125 6.6 13.6211 6.6 11.875C6.6 9.45703 8.32219 7.5 10.45 7.5H11.55C13.6778 7.5 15.4 9.45703 15.4 11.875Z" fill="white"/>
</svg>
