<svg width="22" height="20" viewBox="0 0 22 20" fill="none" xmlns="http://www.w3.org/2000/svg">
<g clip-path="url(#clip0_1141_8678)">
<path d="M6.5355 1.49216C6.96089 1.83982 6.99526 2.42966 6.61284 2.81638L3.51909 5.94138C3.33003 6.13279 3.06362 6.24607 2.78003 6.24997C2.49644 6.25388 2.22573 6.15622 2.02378 5.97654L0.300732 4.41404C-0.098877 4.04685 -0.098877 3.4531 0.300732 3.08591C0.700342 2.71872 1.35776 2.71872 1.75737 3.08591L2.70698 3.94919L5.07456 1.55857C5.45698 1.17185 6.10581 1.1406 6.5312 1.48825L6.5355 1.49216ZM6.5355 7.74216C6.96089 8.08982 6.99526 8.67966 6.61284 9.06638L3.51909 12.1914C3.33003 12.3828 3.06362 12.4961 2.78003 12.5C2.49644 12.5039 2.22573 12.4062 2.02378 12.2265L0.300732 10.664C-0.103174 10.2968 -0.103174 9.7031 0.300732 9.33982C0.704639 8.97654 1.35776 8.97263 1.75737 9.33982L2.70698 10.2031L5.07456 7.81247C5.45698 7.42575 6.10581 7.3945 6.5312 7.74216H6.5355ZM9.62495 3.74997C9.62495 3.05857 10.2394 2.49997 11 2.49997H20.625C21.3855 2.49997 22 3.05857 22 3.74997C22 4.44138 21.3855 4.99997 20.625 4.99997H11C10.2394 4.99997 9.62495 4.44138 9.62495 3.74997ZM9.62495 9.99997C9.62495 9.30857 10.2394 8.74997 11 8.74997H20.625C21.3855 8.74997 22 9.30857 22 9.99997C22 10.6914 21.3855 11.25 20.625 11.25H11C10.2394 11.25 9.62495 10.6914 9.62495 9.99997ZM6.87495 16.25C6.87495 15.5586 7.4894 15 8.24995 15H20.625C21.3855 15 22 15.5586 22 16.25C22 16.9414 21.3855 17.5 20.625 17.5H8.24995C7.4894 17.5 6.87495 16.9414 6.87495 16.25ZM2.06245 14.375C2.60946 14.375 3.13407 14.5725 3.52086 14.9241C3.90765 15.2758 4.12495 15.7527 4.12495 16.25C4.12495 16.7473 3.90765 17.2242 3.52086 17.5758C3.13407 17.9274 2.60946 18.125 2.06245 18.125C1.51544 18.125 0.990837 17.9274 0.604043 17.5758C0.21725 17.2242 -4.88404e-05 16.7473 -4.88404e-05 16.25C-4.88404e-05 15.7527 0.21725 15.2758 0.604043 14.9241C0.990837 14.5725 1.51544 14.375 2.06245 14.375Z" fill="white"/>
</g>
<defs>
<clipPath id="clip0_1141_8678">
<rect width="22" height="20" fill="white"/>
</clipPath>
</defs>
</svg>
