<svg width="25" height="20" viewBox="0 0 25 20" fill="none" xmlns="http://www.w3.org/2000/svg">
<g clip-path="url(#clip0_209_4051)">
<path d="M0 7.5C0 3.35625 2.99665 0 6.69643 0H7.14286C8.13058 0 8.92857 0.89375 8.92857 2C8.92857 3.10625 8.13058 4 7.14286 4H6.69643C4.9721 4 3.57143 5.56875 3.57143 7.5V8H7.14286C9.11272 8 10.7143 9.79375 10.7143 12V16C10.7143 18.2062 9.11272 20 7.14286 20H3.57143C1.60156 20 0 18.2062 0 16V14V12V7.5ZM14.2857 7.5C14.2857 3.35625 17.2824 0 20.9821 0H21.4286C22.4163 0 23.2143 0.89375 23.2143 2C23.2143 3.10625 22.4163 4 21.4286 4H20.9821C19.2578 4 17.8571 5.56875 17.8571 7.5V8H21.4286C23.3984 8 25 9.79375 25 12V16C25 18.2062 23.3984 20 21.4286 20H17.8571C15.8873 20 14.2857 18.2062 14.2857 16V14V12V7.5Z" fill="#312A2A"/>
</g>
<defs>
<clipPath id="clip0_209_4051">
<rect width="25" height="20" fill="white"/>
</clipPath>
</defs>
</svg>
