<svg width="41" height="41" viewBox="0 0 41 41" fill="none" xmlns="http://www.w3.org/2000/svg">
<path d="M34.1575 6.99892C34.0222 4.99882 32.3569 3.41833 30.3227 3.41833H10.677L10.4138 3.4272C8.41373 3.56243 6.83325 5.22768 6.83325 7.26208V33.7379L6.84212 34.0011C6.97737 36.0012 8.64262 37.5816 10.677 37.5816H23.6048L21.0445 35.0191H10.677L10.5031 35.0075C9.87776 34.9226 9.39575 34.3865 9.39575 33.7379V7.26208L9.40745 7.08823C9.49229 6.46284 10.0283 5.98083 10.677 5.98083H30.3227L30.4964 5.99252C31.1218 6.07737 31.6039 6.61343 31.6039 7.26208V27.0221L33.5835 25.0425C33.7653 24.8607 33.9606 24.701 34.1664 24.5633V7.26208L34.1575 6.99892Z" fill="#212121"/>
<path d="M27.8245 37.5816C27.8029 37.5828 27.7812 37.5833 27.7595 37.5833C27.7379 37.5833 27.7164 37.5828 27.6951 37.5816C27.3787 37.5657 27.0783 37.4328 26.8534 37.2077L22.583 32.9338C22.083 32.4332 22.0834 31.6219 22.5839 31.1217C23.0844 30.6215 23.8957 30.6219 24.3959 31.1226L27.7601 34.4897L35.3955 26.8545C35.8957 26.3541 36.707 26.3541 37.2074 26.8545C37.7078 27.3549 37.7078 28.166 37.2074 28.6664L28.6657 37.208C28.4407 37.433 28.1408 37.5657 27.8245 37.5816Z" fill="#212121"/>
<path d="M23.6456 28.1875C23.5418 28.1834 23.4375 28.1834 23.3337 28.1875H19.2122C18.5046 28.1875 17.9309 27.6138 17.9309 26.9062C17.9309 26.1987 18.5046 25.625 19.2122 25.625H27.7603C28.4681 25.625 29.0416 26.1987 29.0416 26.9062C29.0416 27.6138 28.4681 28.1875 27.7603 28.1875H23.6456Z" fill="#212121"/>
<path d="M15.3749 13.2424C15.3749 14.1858 14.6101 14.9507 13.6666 14.9507C12.7231 14.9507 11.9583 14.1858 11.9583 13.2424C11.9583 12.2989 12.7231 11.534 13.6666 11.534C14.6101 11.534 15.3749 12.2989 15.3749 13.2424Z" fill="#212121"/>
<path d="M17.9309 13.2396C17.9309 12.532 18.5046 11.9583 19.2122 11.9583H27.7603C28.4681 11.9583 29.0416 12.532 29.0416 13.2396C29.0416 13.9472 28.4681 14.5208 27.7603 14.5208H19.2122C18.5046 14.5208 17.9309 13.9472 17.9309 13.2396Z" fill="#212121"/>
<path d="M19.2122 18.7917C18.5046 18.7917 17.9309 19.3653 17.9309 20.0729C17.9309 20.7805 18.5046 21.3542 19.2122 21.3542H27.7603C28.4681 21.3542 29.0416 20.7805 29.0416 20.0729C29.0416 19.3653 28.4681 18.7917 27.7603 18.7917H19.2122Z" fill="#212121"/>
<path d="M13.6666 21.7813C14.6101 21.7813 15.3749 21.0164 15.3749 20.0729C15.3749 19.1294 14.6101 18.3646 13.6666 18.3646C12.7231 18.3646 11.9583 19.1294 11.9583 20.0729C11.9583 21.0164 12.7231 21.7813 13.6666 21.7813Z" fill="#212121"/>
<path d="M15.3749 26.9028C15.3749 27.8463 14.6101 28.6112 13.6666 28.6112C12.7231 28.6112 11.9583 27.8463 11.9583 26.9028C11.9583 25.9593 12.7231 25.1945 13.6666 25.1945C14.6101 25.1945 15.3749 25.9593 15.3749 26.9028Z" fill="#212121"/>
</svg>
